<svg width="515" height="330" xmlns="http://www.w3.org/2000/svg">

 <g>
  <title>background</title>
  <rect fill="none" id="canvas_background" height="332" width="517" y="-1" x="-1"/>
 </g>
 <g>
  <title>Layer 1</title>
  <g id="svg_1">
   <g id="svg_2">
    <path id="svg_3" d="m345.214,187.755l-43.582,-19.37c-3.079,-1.368 -5.067,-4.429 -5.067,-7.797l0,-11.968c14.64,-11.665 24.05,-29.628 24.05,-49.758l0,-16.847c4.823,-2.665 8.016,-7.815 8.016,-13.583l0,-1.635c0,-35.076 -28.537,-63.613 -63.613,-63.613l-16.032,0c-35.076,0 -63.613,28.537 -63.613,63.613l0,14.835c0,5.07 2.182,9.663 5.985,12.602c0.645,0.498 1.324,0.936 2.031,1.315l0,3.312c0,20.13 9.409,38.093 24.048,49.757l0,11.969c0,3.368 -1.989,6.429 -5.067,7.797l-43.582,19.37c-14.273,6.343 -23.496,20.535 -23.496,36.154l0,99.404c0,4.142 3.358,7.5 7.5,7.5c4.142,0 7.5,-3.358 7.5,-7.5l0,-99.403c0,-0.869 0.062,-1.728 0.152,-2.58l20.082,20.082c3.125,3.126 4.847,7.281 4.847,11.702l0,70.2c0,4.142 3.358,7.5 7.5,7.5c4.142,0 7.5,-3.358 7.5,-7.5l0,-70.2c0,-8.427 -3.281,-16.349 -9.24,-22.308l-23.941,-23.942c2.157,-2.238 4.745,-4.093 7.689,-5.402l42.847,-19.043l31.775,31.775l0,109.119c0,4.142 3.358,7.5 7.5,7.5s7.5,-3.358 7.5,-7.5l0,-109.118l31.775,-31.775l42.846,19.042c2.944,1.309 5.532,3.164 7.689,5.403l-23.941,23.941c-5.959,5.959 -9.24,13.881 -9.24,22.308l0,70.2c0,4.142 3.358,7.5 7.5,7.5c4.142,0 7.5,-3.358 7.5,-7.5l0,-70.2c0,-4.42 1.721,-8.576 4.847,-11.702l20.081,-20.081c0.09,0.852 0.152,1.709 0.152,2.578l0,99.404c0,4.142 3.358,7.5 7.5,7.5c4.142,0 7.5,-3.358 7.5,-7.5l0,-99.403c-0.003,-15.619 -9.225,-29.811 -23.498,-36.154zm-88.214,12.726l-27.881,-27.882c2.12,-3.567 3.317,-7.694 3.317,-12.011l0,-3.052c7.563,3.178 15.862,4.939 24.565,4.939s17.001,-1.76 24.563,-4.938l0,3.051c0,4.318 1.197,8.444 3.318,12.012l-27.882,27.881zm0.001,-53.007c-26.805,0.001 -48.613,-21.807 -48.613,-48.612l0,-3.373c4.68,-1.855 9.248,-4.807 13.621,-8.842c3.043,-2.809 3.234,-7.554 0.424,-10.598c-2.809,-3.043 -7.553,-3.234 -10.598,-0.425c-3.751,3.463 -7.499,5.7 -11.137,6.65c-0.088,0.023 -0.153,0.033 -0.199,0.037c-0.054,-0.105 -0.127,-0.325 -0.127,-0.678l0,-14.835c0,-26.805 21.808,-48.613 48.613,-48.613l16.032,0c26.806,0 48.613,21.808 48.613,48.613l0,1.635c0,0.243 -0.146,0.454 -0.338,0.492c-44.911,8.87 -67.437,-7.847 -75.037,-15.447c-2.929,-2.929 -7.678,-2.929 -10.606,0c-2.929,2.929 -2.929,7.678 0,10.606c23.29,23.29 57.275,23.71 77.965,21.224l0,13.553c0,26.805 -21.808,48.613 -48.613,48.613z"/>
   </g>
  </g>
  <g id="svg_4">
   <g id="svg_5">
    <path id="svg_6" d="m136.242,146.961l0,-16.035c0,-19.566 -10.168,-36.79 -25.489,-46.702c0.946,-3.035 1.44,-6.214 1.44,-9.411c0,-17.396 -14.152,-31.548 -31.548,-31.548s-31.548,14.153 -31.548,31.548c0,3.237 0.49,6.385 1.438,9.413c-15.32,9.911 -25.487,27.135 -25.487,46.7l0,16.032c0,18.947 9.533,35.701 24.048,45.743l0,16.493c0,3.253 -1.807,6.177 -4.716,7.632l-25.941,12.97c-10.757,5.38 -17.439,16.192 -17.439,28.219l0,65.299c0,4.142 3.358,7.5 7.5,7.5s7.5,-3.358 7.5,-7.5l0,-62.055l12.218,12.218c3.125,3.126 4.847,7.281 4.847,11.702l0,38.135c0,4.142 3.358,7.5 7.5,7.5c4.142,0 7.5,-3.358 7.5,-7.5l0,-38.135c0,-8.427 -3.282,-16.349 -9.24,-22.308l-17.005,-17.005c-0.082,-0.082 -0.17,-0.153 -0.254,-0.23c1.067,-0.942 2.264,-1.762 3.582,-2.422l25.941,-12.97c1.329,-0.665 2.566,-1.45 3.719,-2.322l18.337,18.338l0,77.055c0,4.142 3.358,7.5 7.5,7.5c4.142,0 7.5,-3.358 7.5,-7.5l0,-77.056l18.338,-18.338c1.154,0.873 2.39,1.658 3.719,2.322l7.153,3.577c1.077,0.539 2.221,0.794 3.349,0.794c2.751,0 5.4,-1.52 6.714,-4.147c1.853,-3.705 0.351,-8.21 -3.354,-10.062l-7.153,-3.577c-2.91,-1.455 -4.717,-4.379 -4.717,-7.631l0,-16.493c14.515,-10.042 24.048,-26.797 24.048,-45.743zm-55.597,-88.696c9.125,0 16.548,7.424 16.548,16.548c0,1.005 -0.09,1.99 -0.262,2.955c-5.154,-1.582 -10.621,-2.439 -16.286,-2.439c-5.657,0 -11.117,0.854 -16.263,2.432c-0.173,-0.965 -0.285,-1.945 -0.285,-2.948c0,-9.125 7.423,-16.548 16.548,-16.548zm0,32.065c22.385,0 40.597,18.212 40.597,40.597l0,2.718c-31.225,9.56 -49.834,-14.193 -50.629,-15.234c-1.305,-1.739 -3.3,-2.827 -5.468,-2.981c-2.168,-0.152 -4.298,0.641 -5.835,2.178c-7.159,7.159 -14.171,10.612 -19.235,12.279c0.555,-21.906 18.534,-39.557 40.57,-39.557zm0,142.215l-17.331,-17.331c0.506,-1.934 0.783,-3.95 0.783,-6.019l0,-9.155c5.229,1.634 10.788,2.515 16.548,2.515s11.319,-0.881 16.548,-2.515l0,9.155c0,2.069 0.277,4.086 0.783,6.019l-17.331,17.331zm0,-44.99c-22.385,0 -40.597,-18.212 -40.597,-40.597l0,-1.554c5.981,-1.374 14.849,-4.567 24.1,-12.007c3.273,3.088 7.951,6.876 13.908,10.125c7.046,3.843 16.777,7.398 28.663,7.398c4.517,0 9.35,-0.525 14.459,-1.731c-1.163,21.352 -18.897,38.366 -40.533,38.366z"/>
   </g>
  </g>
  <g id="svg_7">
   <g id="svg_8">
    <path id="svg_9" d="m495.561,213.765l-41.973,-20.987c-2.909,-1.455 -4.716,-4.379 -4.716,-7.631l0,-10.629c9.825,-8.723 16.032,-21.435 16.032,-35.575l0,-8.537c0.173,0 0.343,0.005 0.516,0.005c4.142,0 7.5,-3.358 7.5,-7.5l0,-16.032c0,-26.236 -21.345,-47.581 -47.581,-47.581l-16.032,0c-26.236,0 -47.581,21.345 -47.581,47.581l0,16.032c0,4.142 3.358,7.5 7.5,7.5c0.062,0 0.242,-0.002 0.516,-0.013l0,8.545c0,14.141 6.208,26.853 16.033,35.576l0,10.629c0,3.253 -1.807,6.177 -4.717,7.631c-3.705,1.852 -5.207,6.357 -3.354,10.062c1.314,2.628 3.963,4.148 6.714,4.148c1.127,0 2.271,-0.255 3.348,-0.793c1.329,-0.665 2.566,-1.45 3.719,-2.322l18.338,18.338l0,101.103c0,4.142 3.358,7.5 7.5,7.5c4.142,0 7.5,-3.358 7.5,-7.5l0,-101.105l18.337,-18.338c1.154,0.873 2.39,1.658 3.719,2.322l40.615,20.308l-12.319,12.319c-5.958,5.959 -9.24,13.881 -9.24,22.308l0,62.184c0,4.142 3.358,7.5 7.5,7.5c4.142,0 7.5,-3.358 7.5,-7.5l0,-62.184c0,-4.42 1.721,-8.576 4.847,-11.702l11.669,-11.669c0.354,1.357 0.548,2.772 0.548,4.224l0,81.331c0,4.142 3.358,7.5 7.5,7.5c4.142,0 7.5,-3.358 7.5,-7.5l0,-81.331c0.001,-12.026 -6.681,-22.838 -17.438,-28.217zm-118.836,-99.897l0,-6.99l0.001,0c0,-17.965 14.616,-32.581 32.581,-32.581l16.032,0c17.965,0 32.581,14.616 32.581,32.581l0,8.331c-32.603,-1.759 -52.278,-14.446 -52.469,-14.571c-1.269,-0.846 -2.717,-1.26 -4.158,-1.26c-1.936,0 -3.856,0.748 -5.306,2.197c-7.176,7.176 -14.207,10.63 -19.262,12.293zm40.598,94.629l-17.331,-17.331c0.506,-1.934 0.783,-3.95 0.783,-6.019l0,-1.597c5.156,1.919 10.731,2.973 16.548,2.973c5.817,0 11.392,-1.054 16.548,-2.973l0,1.597c0,2.069 0.276,4.085 0.783,6.019l-17.331,17.331zm0,-36.973c-17.965,0 -32.581,-14.615 -32.581,-32.581l0,-12.091l0,0c5.253,-2.099 11.373,-5.436 17.601,-10.742c7.876,4.098 24.354,11.181 47.561,13.521l0,9.312c0,17.965 -14.616,32.581 -32.581,32.581z"/>
   </g>
  </g>
  <g id="svg_10"/>
  <g id="svg_11"/>
  <g id="svg_12"/>
  <g id="svg_13"/>
  <g id="svg_14"/>
  <g id="svg_15"/>
  <g id="svg_16"/>
  <g id="svg_17"/>
  <g id="svg_18"/>
  <g id="svg_19"/>
  <g id="svg_20"/>
  <g id="svg_21"/>
  <g id="svg_22"/>
  <g id="svg_23"/>
  <g id="svg_24"/>
 </g>
</svg>