<?xml version="1.0" encoding="UTF-8"?>
<svg enable-background="new 0 0 512 512" version="1.1" viewBox="0 0 512 512" xml:space="preserve" xmlns="http://www.w3.org/2000/svg">
			<path d="m480.36 494.74h-14.382v-451.6c0-4.767-3.864-8.629-8.629-8.629h-161.08c-4.766 0-8.629 3.862-8.629 8.629v37.393h-17.258v-37.393c0-4.767-3.864-8.629-8.629-8.629h-37.394v-25.888c0-4.767-3.864-8.629-8.629-8.629s-8.629 3.862-8.629 8.629v25.888h-37.393c-4.766 0-8.629 3.862-8.629 8.629v37.393h-25.888c-4.766 0-8.629 3.862-8.629 8.629v71.91h-71.91c-4.766 0-8.629 3.862-8.629 8.629v325.03h-14.384c-4.766 0-8.629 3.862-8.629 8.629s3.864 8.63 8.629 8.63h448.72c4.766 0 8.629-3.862 8.629-8.629s-3.864-8.629-8.629-8.629zm-302.02-442.97h74.786v28.764h-74.786v-28.764zm-28.764 442.97h-5.753v-14.382c0-4.767-3.864-8.629-8.629-8.629s-8.629 3.862-8.629 8.629v14.382h-5.753v-28.764h28.764v28.764zm57.528-221.48v221.48h-40.27v-37.393c0-4.767-3.864-8.629-8.629-8.629h-46.022c-4.766 0-8.629 3.862-8.629 8.629v37.393h-40.27v-316.4h143.82v94.921zm8.629-112.18h-71.91v-63.281h143.82v166.83h-63.28v-28.764h25.888c4.766 0 8.629-3.862 8.629-8.629s-3.864-8.629-8.629-8.629h-25.888v-28.764h25.888c4.766 0 8.629-3.862 8.629-8.629s-3.864-8.629-8.629-8.629h-25.888v-2.876c0-4.768-3.864-8.63-8.63-8.63zm152.45 333.66h-143.82v-212.85h143.82v212.85zm80.539 0h-63.281v-232.99c0-4.767-3.864-8.629-8.629-8.629s-8.629 3.862-8.629 8.629v2.876h-17.258v-2.876c0-4.767-3.864-8.629-8.629-8.629s-8.629 3.862-8.629 8.629v2.876h-28.764v-212.85h143.82v442.97z"/>
			<path d="m261.75 477.48c4.766 0 8.629-3.864 8.629-8.629v-161.08c0-4.767-3.864-8.629-8.629-8.629s-8.629 3.862-8.629 8.629v161.08c0 4.765 3.863 8.628 8.629 8.628z"/>
			<path d="m296.27 477.48c4.766 0 8.629-3.864 8.629-8.629v-161.08c0-4.767-3.864-8.629-8.629-8.629s-8.629 3.862-8.629 8.629v161.08c-1e-3 4.765 3.863 8.628 8.629 8.628z"/>
			<path d="m330.79 477.48c4.766 0 8.629-3.864 8.629-8.629v-161.08c0-4.767-3.864-8.629-8.629-8.629s-8.629 3.862-8.629 8.629v161.08c0 4.765 3.864 8.628 8.629 8.628z"/>
			<path d="m342.29 109.3c4.766 0 8.629-3.862 8.629-8.629v-11.505c0-4.767-3.864-8.629-8.629-8.629s-8.629 3.862-8.629 8.629v11.506c0 4.766 3.863 8.628 8.629 8.628z"/>
			<path d="m376.81 109.3c4.766 0 8.629-3.862 8.629-8.629v-11.505c0-4.767-3.864-8.629-8.629-8.629s-8.629 3.862-8.629 8.629v11.506c0 4.766 3.863 8.628 8.629 8.628z"/>
			<path d="m411.33 109.3c4.766 0 8.629-3.862 8.629-8.629v-11.505c0-4.767-3.864-8.629-8.629-8.629s-8.629 3.862-8.629 8.629v11.506c0 4.766 3.863 8.628 8.629 8.628z"/>
			<path d="m342.29 166.83c4.766 0 8.629-3.862 8.629-8.629v-11.506c0-4.767-3.864-8.629-8.629-8.629s-8.629 3.862-8.629 8.629v11.506c0 4.767 3.863 8.629 8.629 8.629z"/>
			<path d="m376.81 166.83c4.766 0 8.629-3.862 8.629-8.629v-11.506c0-4.767-3.864-8.629-8.629-8.629s-8.629 3.862-8.629 8.629v11.506c0 4.767 3.863 8.629 8.629 8.629z"/>
			<path d="m411.33 166.83c4.766 0 8.629-3.862 8.629-8.629v-11.506c0-4.767-3.864-8.629-8.629-8.629s-8.629 3.862-8.629 8.629v11.506c0 4.767 3.863 8.629 8.629 8.629z"/>
			<path d="m342.29 224.36c4.766 0 8.629-3.862 8.629-8.629v-11.506c0-4.767-3.864-8.629-8.629-8.629s-8.629 3.862-8.629 8.629v11.506c0 4.766 3.863 8.629 8.629 8.629z"/>
			<path d="m376.81 224.36c4.766 0 8.629-3.862 8.629-8.629v-11.506c0-4.767-3.864-8.629-8.629-8.629s-8.629 3.862-8.629 8.629v11.506c0 4.766 3.863 8.629 8.629 8.629z"/>
			<path d="m411.33 224.36c4.766 0 8.629-3.862 8.629-8.629v-11.506c0-4.767-3.864-8.629-8.629-8.629s-8.629 3.862-8.629 8.629v11.506c0 4.766 3.863 8.629 8.629 8.629z"/>
			<path d="m100.67 247.37c4.766 0 8.629-3.862 8.629-8.629v-11.506c0-4.767-3.864-8.629-8.629-8.629s-8.629 3.862-8.629 8.629v11.506c0 4.766 3.864 8.629 8.629 8.629z"/>
			<path d="m135.19 247.37c4.766 0 8.629-3.862 8.629-8.629v-11.506c0-4.767-3.864-8.629-8.629-8.629s-8.629 3.862-8.629 8.629v11.506c0 4.766 3.863 8.629 8.629 8.629z"/>
			<path d="m169.71 247.37c4.766 0 8.629-3.862 8.629-8.629v-11.506c0-4.767-3.864-8.629-8.629-8.629s-8.629 3.862-8.629 8.629v11.506c0 4.766 3.863 8.629 8.629 8.629z"/>
			<path d="m100.67 304.9c4.766 0 8.629-3.862 8.629-8.629v-11.506c0-4.767-3.864-8.629-8.629-8.629s-8.629 3.862-8.629 8.629v11.506c0 4.766 3.864 8.629 8.629 8.629z"/>
			<path d="m135.19 304.9c4.766 0 8.629-3.862 8.629-8.629v-11.506c0-4.767-3.864-8.629-8.629-8.629s-8.629 3.862-8.629 8.629v11.506c0 4.766 3.863 8.629 8.629 8.629z"/>
			<path d="m169.71 304.9c4.766 0 8.629-3.862 8.629-8.629v-11.506c0-4.767-3.864-8.629-8.629-8.629s-8.629 3.862-8.629 8.629v11.506c0 4.766 3.863 8.629 8.629 8.629z"/>
			<path d="m100.67 362.43c4.766 0 8.629-3.862 8.629-8.629v-11.506c0-4.767-3.864-8.629-8.629-8.629s-8.629 3.862-8.629 8.629v11.506c0 4.767 3.864 8.629 8.629 8.629z"/>
			<path d="m135.19 362.43c4.766 0 8.629-3.862 8.629-8.629v-11.506c0-4.767-3.864-8.629-8.629-8.629s-8.629 3.862-8.629 8.629v11.506c0 4.767 3.863 8.629 8.629 8.629z"/>
			<path d="m169.71 362.43c4.766 0 8.629-3.862 8.629-8.629v-11.506c0-4.767-3.864-8.629-8.629-8.629s-8.629 3.862-8.629 8.629v11.506c0 4.767 3.863 8.629 8.629 8.629z"/>
			<path d="m100.67 419.96c4.766 0 8.629-3.862 8.629-8.629v-11.506c0-4.767-3.864-8.629-8.629-8.629s-8.629 3.862-8.629 8.629v11.506c0 4.767 3.864 8.629 8.629 8.629z"/>
			<path d="m135.19 419.96c4.766 0 8.629-3.862 8.629-8.629v-11.506c0-4.767-3.864-8.629-8.629-8.629s-8.629 3.862-8.629 8.629v11.506c0 4.767 3.863 8.629 8.629 8.629z"/>
			<path d="m169.71 419.96c4.766 0 8.629-3.862 8.629-8.629v-11.506c0-4.767-3.864-8.629-8.629-8.629s-8.629 3.862-8.629 8.629v11.506c0 4.767 3.863 8.629 8.629 8.629z"/>
			<path d="m411.33 281.89c4.766 0 8.629-3.862 8.629-8.629v-11.506c0-4.767-3.864-8.629-8.629-8.629s-8.629 3.862-8.629 8.629v11.506c0 4.766 3.863 8.629 8.629 8.629z"/>
			<path d="m411.33 339.42c4.766 0 8.629-3.862 8.629-8.629v-11.506c0-4.767-3.864-8.629-8.629-8.629s-8.629 3.862-8.629 8.629v11.506c0 4.766 3.863 8.629 8.629 8.629z"/>
			<path d="m411.33 396.94c4.766 0 8.629-3.862 8.629-8.629v-11.506c0-4.767-3.864-8.629-8.629-8.629s-8.629 3.862-8.629 8.629v11.506c0 4.766 3.863 8.629 8.629 8.629z"/>
			<path d="m411.33 454.47c4.766 0 8.629-3.862 8.629-8.629v-11.506c0-4.767-3.864-8.629-8.629-8.629s-8.629 3.862-8.629 8.629v11.506c0 4.766 3.863 8.629 8.629 8.629z"/>
			<path d="m258.88 135.19c0-4.767-3.864-8.629-8.629-8.629h-69.034c-4.766 0-8.629 3.862-8.629 8.629s3.864 8.629 8.629 8.629h69.034c4.766 0 8.629-3.862 8.629-8.629z"/>
</svg>
